<svg id="visual" viewBox="0 0 540 960" width="540" height="960" xmlns="http://www.w3.org/2000/svg" xmlns:xlink="http://www.w3.org/1999/xlink" version="1.1"><path d="M0 564L7.5 579.3C15 594.7 30 625.3 45 640C60 654.7 75 653.3 90 650.7C105 648 120 644 135 638.3C150 632.7 165 625.3 180 619.8C195 614.3 210 610.7 225 609.7C240 608.7 255 610.3 270 604C285 597.7 300 583.3 315 588.2C330 593 345 617 360 637C375 657 390 673 405 667.3C420 661.7 435 634.3 450 630.7C465 627 480 647 495 647.8C510 648.7 525 630.3 532.5 621.2L540 612L540 961L532.5 961C525 961 510 961 495 961C480 961 465 961 450 961C435 961 420 961 405 961C390 961 375 961 360 961C345 961 330 961 315 961C300 961 285 961 270 961C255 961 240 961 225 961C210 961 195 961 180 961C165 961 150 961 135 961C120 961 105 961 90 961C75 961 60 961 45 961C30 961 15 961 7.5 961L0 961Z" fill="#343a40"></path><path d="M0 686L7.5 689.8C15 693.7 30 701.3 45 704.7C60 708 75 707 90 707.8C105 708.7 120 711.3 135 700.5C150 689.7 165 665.3 180 669.5C195 673.7 210 706.3 225 705.7C240 705 255 671 270 670C285 669 300 701 315 702.7C330 704.3 345 675.7 360 658.7C375 641.7 390 636.3 405 651.8C420 667.3 435 703.7 450 700.5C465 697.3 480 654.7 495 651.3C510 648 525 684 532.5 702L540 720L540 961L532.5 961C525 961 510 961 495 961C480 961 465 961 450 961C435 961 420 961 405 961C390 961 375 961 360 961C345 961 330 961 315 961C300 961 285 961 270 961C255 961 240 961 225 961C210 961 195 961 180 961C165 961 150 961 135 961C120 961 105 961 90 961C75 961 60 961 45 961C30 961 15 961 7.5 961L0 961Z" fill="#31363c"></path><path d="M0 668L7.5 671.8C15 675.7 30 683.3 45 689C60 694.7 75 698.3 90 705.7C105 713 120 724 135 733.7C150 743.3 165 751.7 180 751.7C195 751.7 210 743.3 225 733C240 722.7 255 710.3 270 703.5C285 696.7 300 695.3 315 697.8C330 700.3 345 706.7 360 714.2C375 721.7 390 730.3 405 722.2C420 714 435 689 450 690C465 691 480 718 495 717.2C510 716.3 525 687.7 532.5 673.3L540 659L540 961L532.5 961C525 961 510 961 495 961C480 961 465 961 450 961C435 961 420 961 405 961C390 961 375 961 360 961C345 961 330 961 315 961C300 961 285 961 270 961C255 961 240 961 225 961C210 961 195 961 180 961C165 961 150 961 135 961C120 961 105 961 90 961C75 961 60 961 45 961C30 961 15 961 7.5 961L0 961Z" fill="#2d3338"></path><path d="M0 739L7.5 748.3C15 757.7 30 776.3 45 788.8C60 801.3 75 807.7 90 806.3C105 805 120 796 135 794.7C150 793.3 165 799.7 180 794.3C195 789 210 772 225 765.2C240 758.3 255 761.7 270 764.7C285 767.7 300 770.3 315 764C330 757.7 345 742.3 360 741C375 739.7 390 752.3 405 752.7C420 753 435 741 450 748.7C465 756.3 480 783.7 495 795C510 806.3 525 801.7 532.5 799.3L540 797L540 961L532.5 961C525 961 510 961 495 961C480 961 465 961 450 961C435 961 420 961 405 961C390 961 375 961 360 961C345 961 330 961 315 961C300 961 285 961 270 961C255 961 240 961 225 961C210 961 195 961 180 961C165 961 150 961 135 961C120 961 105 961 90 961C75 961 60 961 45 961C30 961 15 961 7.5 961L0 961Z" fill="#2a2f34"></path><path d="M0 821L7.5 815.7C15 810.3 30 799.7 45 799.7C60 799.7 75 810.3 90 817C105 823.7 120 826.3 135 823.8C150 821.3 165 813.7 180 806.8C195 800 210 794 225 801.3C240 808.7 255 829.3 270 828.2C285 827 300 804 315 802.8C330 801.7 345 822.3 360 823.5C375 824.7 390 806.3 405 805.5C420 804.7 435 821.3 450 819.3C465 817.3 480 796.7 495 797.2C510 797.7 525 819.3 532.5 830.2L540 841L540 961L532.5 961C525 961 510 961 495 961C480 961 465 961 450 961C435 961 420 961 405 961C390 961 375 961 360 961C345 961 330 961 315 961C300 961 285 961 270 961C255 961 240 961 225 961C210 961 195 961 180 961C165 961 150 961 135 961C120 961 105 961 90 961C75 961 60 961 45 961C30 961 15 961 7.5 961L0 961Z" fill="#272c30"></path><path d="M0 821L7.5 822.7C15 824.3 30 827.7 45 828.5C60 829.3 75 827.7 90 833.5C105 839.3 120 852.7 135 857.7C150 862.7 165 859.3 180 852.3C195 845.3 210 834.7 225 836.7C240 838.7 255 853.3 270 852.3C285 851.3 300 834.7 315 835.2C330 835.7 345 853.3 360 858.7C375 864 390 857 405 856.8C420 856.7 435 863.3 450 862.8C465 862.3 480 854.7 495 849.7C510 844.7 525 842.3 532.5 841.2L540 840L540 961L532.5 961C525 961 510 961 495 961C480 961 465 961 450 961C435 961 420 961 405 961C390 961 375 961 360 961C345 961 330 961 315 961C300 961 285 961 270 961C255 961 240 961 225 961C210 961 195 961 180 961C165 961 150 961 135 961C120 961 105 961 90 961C75 961 60 961 45 961C30 961 15 961 7.5 961L0 961Z" fill="#24282d"></path><path d="M0 918L7.5 910.8C15 903.7 30 889.3 45 885.2C60 881 75 887 90 891.5C105 896 120 899 135 904.5C150 910 165 918 180 913.2C195 908.3 210 890.7 225 882.5C240 874.3 255 875.7 270 883.2C285 890.7 300 904.3 315 906C330 907.7 345 897.3 360 893.2C375 889 390 891 405 892.2C420 893.3 435 893.7 450 895.5C465 897.3 480 900.7 495 901.2C510 901.7 525 899.3 532.5 898.2L540 897L540 961L532.5 961C525 961 510 961 495 961C480 961 465 961 450 961C435 961 420 961 405 961C390 961 375 961 360 961C345 961 330 961 315 961C300 961 285 961 270 961C255 961 240 961 225 961C210 961 195 961 180 961C165 961 150 961 135 961C120 961 105 961 90 961C75 961 60 961 45 961C30 961 15 961 7.5 961L0 961Z" fill="#212529"></path></svg>