<svg id="visual" viewBox="0 0 960 540" width="960" height="540" xmlns="http://www.w3.org/2000/svg" xmlns:xlink="http://www.w3.org/1999/xlink" version="1.1"><path d="M0 317L13.3 325.7C26.7 334.3 53.3 351.7 80 359.8C106.7 368 133.3 367 160 365.5C186.7 364 213.3 362 240 358.8C266.7 355.7 293.3 351.3 320 348.2C346.7 345 373.3 343 400 342.5C426.7 342 453.3 343 480 339.3C506.7 335.7 533.3 327.3 560 330C586.7 332.7 613.3 346.3 640 357.7C666.7 369 693.3 378 720 374.8C746.7 371.7 773.3 356.3 800 354.3C826.7 352.3 853.3 363.7 880 364.2C906.7 364.7 933.3 354.3 946.7 349.2L960 344L960 541L946.7 541C933.3 541 906.7 541 880 541C853.3 541 826.7 541 800 541C773.3 541 746.7 541 720 541C693.3 541 666.7 541 640 541C613.3 541 586.7 541 560 541C533.3 541 506.7 541 480 541C453.3 541 426.7 541 400 541C373.3 541 346.7 541 320 541C293.3 541 266.7 541 240 541C213.3 541 186.7 541 160 541C133.3 541 106.7 541 80 541C53.3 541 26.7 541 13.3 541L0 541Z" fill="#343a40"></path><path d="M0 386L13.3 388.2C26.7 390.3 53.3 394.7 80 396.5C106.7 398.3 133.3 397.7 160 398C186.7 398.3 213.3 399.7 240 393.5C266.7 387.3 293.3 373.7 320 376C346.7 378.3 373.3 396.7 400 396.3C426.7 396 453.3 377 480 376.5C506.7 376 533.3 394 560 395C586.7 396 613.3 380 640 370.5C666.7 361 693.3 358 720 366.7C746.7 375.3 773.3 395.7 800 393.8C826.7 392 853.3 368 880 366.2C906.7 364.3 933.3 384.7 946.7 394.8L960 405L960 541L946.7 541C933.3 541 906.7 541 880 541C853.3 541 826.7 541 800 541C773.3 541 746.7 541 720 541C693.3 541 666.7 541 640 541C613.3 541 586.7 541 560 541C533.3 541 506.7 541 480 541C453.3 541 426.7 541 400 541C373.3 541 346.7 541 320 541C293.3 541 266.7 541 240 541C213.3 541 186.7 541 160 541C133.3 541 106.7 541 80 541C53.3 541 26.7 541 13.3 541L0 541Z" fill="#31363c"></path><path d="M0 375L13.3 377.2C26.7 379.3 53.3 383.7 80 386.8C106.7 390 133.3 392 160 396.2C186.7 400.3 213.3 406.7 240 412.2C266.7 417.7 293.3 422.3 320 422.3C346.7 422.3 373.3 417.7 400 411.8C426.7 406 453.3 399 480 395.2C506.7 391.3 533.3 390.7 560 392C586.7 393.3 613.3 396.7 640 400.8C666.7 405 693.3 410 720 405.5C746.7 401 773.3 387 800 387.7C826.7 388.3 853.3 403.7 880 403.2C906.7 402.7 933.3 386.3 946.7 378.2L960 370L960 541L946.7 541C933.3 541 906.7 541 880 541C853.3 541 826.7 541 800 541C773.3 541 746.7 541 720 541C693.3 541 666.7 541 640 541C613.3 541 586.7 541 560 541C533.3 541 506.7 541 480 541C453.3 541 426.7 541 400 541C373.3 541 346.7 541 320 541C293.3 541 266.7 541 240 541C213.3 541 186.7 541 160 541C133.3 541 106.7 541 80 541C53.3 541 26.7 541 13.3 541L0 541Z" fill="#2d3338"></path><path d="M0 415L13.3 420.3C26.7 425.7 53.3 436.3 80 443.5C106.7 450.7 133.3 454.3 160 453.5C186.7 452.7 213.3 447.3 240 446.5C266.7 445.7 293.3 449.3 320 446.3C346.7 443.3 373.3 433.7 400 429.8C426.7 426 453.3 428 480 429.7C506.7 431.3 533.3 432.7 560 429C586.7 425.3 613.3 416.7 640 416C666.7 415.3 693.3 422.7 720 423C746.7 423.3 773.3 416.7 800 421C826.7 425.3 853.3 440.7 880 447C906.7 453.3 933.3 450.7 946.7 449.3L960 448L960 541L946.7 541C933.3 541 906.7 541 880 541C853.3 541 826.7 541 800 541C773.3 541 746.7 541 720 541C693.3 541 666.7 541 640 541C613.3 541 586.7 541 560 541C533.3 541 506.7 541 480 541C453.3 541 426.7 541 400 541C373.3 541 346.7 541 320 541C293.3 541 266.7 541 240 541C213.3 541 186.7 541 160 541C133.3 541 106.7 541 80 541C53.3 541 26.7 541 13.3 541L0 541Z" fill="#2a2f34"></path><path d="M0 461L13.3 458C26.7 455 53.3 449 80 449.2C106.7 449.3 133.3 455.7 160 459.5C186.7 463.3 213.3 464.7 240 463.2C266.7 461.7 293.3 457.3 320 453.5C346.7 449.7 373.3 446.3 400 450.5C426.7 454.7 453.3 466.3 480 465.7C506.7 465 533.3 452 560 451.3C586.7 450.7 613.3 462.3 640 463C666.7 463.7 693.3 453.3 720 452.8C746.7 452.3 773.3 461.7 800 460.5C826.7 459.3 853.3 447.7 880 448C906.7 448.3 933.3 460.7 946.7 466.8L960 473L960 541L946.7 541C933.3 541 906.7 541 880 541C853.3 541 826.7 541 800 541C773.3 541 746.7 541 720 541C693.3 541 666.7 541 640 541C613.3 541 586.7 541 560 541C533.3 541 506.7 541 480 541C453.3 541 426.7 541 400 541C373.3 541 346.7 541 320 541C293.3 541 266.7 541 240 541C213.3 541 186.7 541 160 541C133.3 541 106.7 541 80 541C53.3 541 26.7 541 13.3 541L0 541Z" fill="#272c30"></path><path d="M0 461L13.3 462C26.7 463 53.3 465 80 465.5C106.7 466 133.3 465 160 468.3C186.7 471.7 213.3 479.3 240 482.2C266.7 485 293.3 483 320 479C346.7 475 373.3 469 400 470.2C426.7 471.3 453.3 479.7 480 479.2C506.7 478.7 533.3 469.3 560 469.7C586.7 470 613.3 480 640 483C666.7 486 693.3 482 720 481.8C746.7 481.7 773.3 485.3 800 485C826.7 484.7 853.3 480.3 880 477.5C906.7 474.7 933.3 473.3 946.7 472.7L960 472L960 541L946.7 541C933.3 541 906.7 541 880 541C853.3 541 826.7 541 800 541C773.3 541 746.7 541 720 541C693.3 541 666.7 541 640 541C613.3 541 586.7 541 560 541C533.3 541 506.7 541 480 541C453.3 541 426.7 541 400 541C373.3 541 346.7 541 320 541C293.3 541 266.7 541 240 541C213.3 541 186.7 541 160 541C133.3 541 106.7 541 80 541C53.3 541 26.7 541 13.3 541L0 541Z" fill="#24282d"></path><path d="M0 516L13.3 512C26.7 508 53.3 500 80 497.7C106.7 495.3 133.3 498.7 160 501.2C186.7 503.7 213.3 505.3 240 508.3C266.7 511.3 293.3 515.7 320 512.8C346.7 510 373.3 500 400 495.5C426.7 491 453.3 492 480 496.3C506.7 500.7 533.3 508.3 560 509.3C586.7 510.3 613.3 504.7 640 502.3C666.7 500 693.3 501 720 501.5C746.7 502 773.3 502 800 503C826.7 504 853.3 506 880 506.3C906.7 506.7 933.3 505.3 946.7 504.7L960 504L960 541L946.7 541C933.3 541 906.7 541 880 541C853.3 541 826.7 541 800 541C773.3 541 746.7 541 720 541C693.3 541 666.7 541 640 541C613.3 541 586.7 541 560 541C533.3 541 506.7 541 480 541C453.3 541 426.7 541 400 541C373.3 541 346.7 541 320 541C293.3 541 266.7 541 240 541C213.3 541 186.7 541 160 541C133.3 541 106.7 541 80 541C53.3 541 26.7 541 13.3 541L0 541Z" fill="#212529"></path></svg>